<?xml version="1.0" standalone="no"?>
<!DOCTYPE svg PUBLIC "-//W3C//DTD SVG 20010904//EN"
 "http://www.w3.org/TR/2001/REC-SVG-20010904/DTD/svg10.dtd">
<svg version="1.0" xmlns="http://www.w3.org/2000/svg"
 width="256.000000pt" height="256.000000pt" viewBox="0 0 256.000000 256.000000"
 preserveAspectRatio="xMidYMid meet">

<rect width="100%" height="100%" fill="#ffffff"/>
<g transform="translate(0.000000,256.000000) scale(0.100000,-0.100000)"
fill="#a1232b" stroke="none">
<path d="M0 1280 l0 -1280 1280 0 1280 0 0 1280 0 1280 -1280 0 -1280 0 0
-1280z m853 876 l429 -123 431 124 c238 67 435 123 440 123 4 0 6 -57 5 -127
l-3 -127 -437 -137 -437 -136 -438 137 -438 137 -3 126 c-2 98 0 127 10 127 7
-1 206 -56 441 -124z m0 -416 l427 -160 427 160 c234 88 428 158 431 155 8 -8
-18 -194 -48 -345 -93 -465 -250 -799 -490 -1041 -91 -91 -256 -213 -307 -225
-47 -12 -247 128 -363 254 -190 204 -331 486 -420 836 -48 189 -104 526 -88
526 3 0 197 -72 431 -160z"/>
</g>
</svg>
